<?xml version="1.0" standalone="no"?>
<!DOCTYPE svg PUBLIC "-//W3C//DTD SVG 1.1//EN" "http://www.w3.org/Graphics/SVG/1.1/DTD/svg11.dtd" >
<svg xmlns="http://www.w3.org/2000/svg">
<metadata>Generated by IcoMoon</metadata>
<defs>
<font id="Charts-Icons" horiz-adv-x="1024">
<font-face units-per-em="1024" ascent="960" descent="-64" />
<missing-glyph horiz-adv-x="1024" />
<glyph unicode="&#x20;" horiz-adv-x="512" d="" />
<glyph unicode="&#xe900;" glyph-name="bar-chart-1" d="M1024 0v-64h-1024v1024h64v-192h64v-64h-64v-128h64v-64h-64v-128h64v-64h-64v-128h64v-64h-64v-128h960zM320 384h-128v-320h128v320zM512 576h-128v-512h128v512zM704 192h-128v-128h128v128zM896 768h-128v-704h128v704z" />
<glyph unicode="&#xe901;" glyph-name="bar-chart-2" d="M64 960h-64v-1024h1024v64h-192v64h-64v-64h-128v64h-64v-64h-128v64h-64v-64h-128v64h-64v-64h-128v960zM448 256v-128h-320v128h320zM640 448v-128h-512v128h512zM832 640v-128h-704v128h704zM1024 832v-128h-896v128h896z" />
<glyph unicode="&#xe902;" glyph-name="bar-chart-3" d="M64 960h-64v-1024h1024v64h-192v64h-64v-64h-128v64h-64v-64h-128v64h-64v-64h-128v64h-64v-64h-128v960zM1024 256v-128h-896v128h896zM832 448v-128h-704v128h704zM640 640v-128h-512v128h512zM448 832v-128h-320v128h320z" />
<glyph unicode="&#xe903;" glyph-name="bar-chart-4" d="M1024-32c0-17.688-14.312-32-32-32h-960c-17.688 0-32 14.312-32 32v960c0 17.688 14.312 32 32 32s32-14.312 32-32v-160h32c17.688 0 32-14.312 32-32s-14.312-32-32-32h-32v-128h32c17.688 0 32-14.312 32-32s-14.312-32-32-32h-32v-128h32c17.688 0 32-14.312 32-32s-14.312-32-32-32h-32v-128h32c17.688 0 32-14.312 32-32s-14.312-32-32-32h-32v-128h928c17.688 0 32-14.312 32-32zM256 64c35.344 0 64 28.626 64 64v192c0 35.376-28.656 64-64 64s-64-28.626-64-64v-192c0-35.376 28.656-64 64-64zM448 64c35.344 0 64 28.626 64 64v384c0 35.376-28.656 64-64 64s-64-28.626-64-64v-384c0-35.376 28.656-64 64-64zM640 64c35.376 0 64 28.626 64 64v512c0 35.376-28.626 64-64 64s-64-28.626-64-64v-512c0-35.376 28.626-64 64-64zM832 64c35.376 0 64 28.626 64 64v640c0 35.376-28.626 64-64 64s-64-28.626-64-64v-640c0-35.376 28.626-64 64-64z" />
<glyph unicode="&#xe904;" glyph-name="bar-chart-5" d="M896 64l128-64-128-64v32h-864v864h-32l64 128 64-128h-32v-800h800v32zM384 384h-64v192h-64v-192h-64v-192h192v192zM576 128h64v192h64v256h-64v64h-64v-64h-64v-256h64v-192zM960 768v192h-64v-192h-64v-384h64v-128h64v128h64v384h-64z" />
<glyph unicode="&#xe905;" glyph-name="bar-chart-6" d="M352 64h-192v384h192v-384zM608 640h-192v-576h192v576zM864 832h-192v-768h192v768zM1024 960v-1024h-1024v1024h1024zM960 896h-896v-112h576v-32h-576v-96h320v-32h-320v-96h320v-32h-320v-96h64v-32h-64v-96h64v-32h-64v-96h64v-32h-64v-112h896v112h-64v32h64v96h-64v32h64v96h-64v32h64v96h-64v32h64v96h-64v32h64v96h-64v32h64v112z" />
<glyph unicode="&#xe906;" glyph-name="bar-chart-7" d="M1024 0v-64h-1024v1024h64v-960h960zM457.812 604.562l261.438-65.312 90.5 150.75 82-49.25 4.25 255.25-223.188-123.876 82-49.25-66.062-110.126-250.562 62.688-268.812-268.812 45.25-45.25 243.186 243.188zM384 64h128v461.062l-34.562 8.626-93.438-93.438v-376.25zM192 293.5v-229.5h128v312.25l-105.376-105.376-22.624 22.626zM768 496v-432h128v499.562l-64.312 38.562-63.688-106.124zM704 64v413.062l-128 32v-445.062h128z" />
<glyph unicode="&#xe907;" glyph-name="bar-chart-8" d="M64 0h960v-64h-1024v1024h64v-960zM1024 816h-388.874c2.812-4.75 4.876-10 4.876-16v-96c29.688 0 53.562-20.626 60.75-48h323.248v-32h-68.876c2.812-4.75 4.876-10 4.876-16v-96c29.688 0 53.562-20.626 60.75-48h3.25v-144c0-19.438-9.126-36.25-22.812-48h22.812v-32h-64v-80c0-17.688-14.312-32-32-32s-32 14.312-32 32v80h-515.25c-7.25-27.376-31.062-48-60.75-48v-96c0-5.938-2.062-11.25-4.876-16h708.876v-32h-896v32h132.876c-2.812 4.75-4.876 10.062-4.876 16v96c-29.688 0-53.5 20.626-60.75 48h-67.25v32h64v112c0 19.438 9.126 36.25 22.812 48h-86.812v32h128v80c0 17.688 14.312 32 32 32s32-14.312 32-32v-80h214.812c-13.686 11.75-22.812 28.562-22.812 48v112h-384v32h387.25c7.25 27.376 31.062 48 60.75 48v96c0 6 2.062 11.25 4.876 16h-452.876v32h896v-32zM681.188 464h154.062c7.188 27.376 31.062 48 60.75 48v96c0 6 2.062 11.25 4.876 16h-196.876v-112c0-19.438-9.124-36.25-22.812-48zM608 320c-17.688 0-32 14.312-32 32v80h-214.812c13.688-11.75 22.812-28.562 22.812-48v-112h470.812c-13.686 11.75-22.812 28.562-22.812 48v112h-192v-80c0-17.688-14.312-32-32-32z" />
<glyph unicode="&#xe908;" glyph-name="bar-chart-9" d="M1024 0v-64h-1024v1024h64v-960h960zM960 320v576l-192-384-128 192-128-320-128 192-128-256-128 192v-448h832v256z" />
<glyph unicode="&#xe909;" glyph-name="bar-chart-10" d="M260.762 676.379h-227.532c-18.414 0-33.23-14.816-33.23-33.23v-657.409c0-18.414 14.816-33.23 33.23-33.23h227.532c18.414 0 33.23 14.816 33.23 33.23v657.409c0.212 18.414-14.816 33.23-33.23 33.23zM227.532 18.97h-161.072v590.948h161.072v-590.948zM990.77 501.973h-227.532c-18.414 0-33.23-14.816-33.23-33.23v-483.003c0-18.414 14.816-33.23 33.23-33.23h227.532c18.414 0 33.23 14.816 33.23 33.23v483.003c0 18.414-14.816 33.23-33.23 33.23zM796.468 435.512h51.644l-51.644-51.644v51.644zM796.468 330.953l104.347 104.347h52.703l-157.050-157.050v52.703zM957.539 18.97h-51.856l51.856 51.856v-51.856zM957.539 123.529l-104.559-104.559h-52.703l157.050 157.050v-52.491h0.212zM957.539 228.723l-161.072-161.072v52.703l161.072 161.072v-52.703zM957.539 334.128l-161.072-161.072v52.703l161.072 161.072v-52.703zM625.872 943.491h-227.744c-18.414 0-33.23-14.816-33.23-33.23v-924.521c0-18.414 14.816-33.23 33.23-33.23h227.532c18.414 0 33.23 14.816 33.23 33.23v924.521c0.212 18.414-14.604 33.23-33.019 33.23z" />
<glyph unicode="&#xe90a;" glyph-name="bar-chart-down-2" d="M1024 0v-64h-1024v1024h64v-960h960zM916.25 359.25l-90.25 238.75-60.562-74-532.938 436-40.5-49.562 532.876-436-60.562-74.062 251.936-41.126zM192 827.75v-763.75h128v659l-128 104.75zM384 670.624v-606.624h128v501.938l-128 104.686zM576 350v-286h128v265.062l-128 20.938zM768 318.624v-254.624h128v233.75l-128 20.874z" />
<glyph unicode="&#xe90b;" glyph-name="bar-chart-down-3" d="M186.188 908.624c6.25 30.876 33.688 52 64 51.376 3.75-0.062 7.562-0.5 11.438-1.25 179.626-36.25 361.312-127 553.876-275.126l73.75 85.688 118.248-337.312-351.376 66.376 75.876 88c-173.062 132-339.688 215.376-495.75 246.876-34.624 6.998-57.062 40.748-50.062 75.372zM208 576c0 35.346-28.654 64-64 64h-64c-35.346 0-64-28.654-64-64v-576c0-35.346 28.654-64 64-64h64c35.346 0 64 28.654 64 64v576zM976 192c0 35.346-28.654 64-64 64h-64c-35.346 0-64-28.654-64-64v-192c0-35.346 28.654-64 64-64h64c35.346 0 64 28.654 64 64v192zM464 448c0 35.346-28.654 64-64 64h-64c-35.346 0-64-28.654-64-64v-448c0-35.346 28.654-64 64-64h64c35.346 0 64 28.654 64 64v448zM720 320c0 35.346-28.654 64-64 64h-64c-35.346 0-64-28.654-64-64v-320c0-35.346 28.654-64 64-64h64c35.346 0 64 28.654 64 64v320z" />
<glyph unicode="&#xe90c;" glyph-name="bar-chart-down-4" d="M64 0h960v-64h-1024v1024h64v-960zM800 352v-128h192v128h-192zM768 384h256v-256h-256v256zM480 608v-192h192v192h-192zM448 640h256v-512h-256v512zM160 928v-256h192v256h-192zM128 960h256v-832h-256v832z" />
<glyph unicode="&#xe90d;" glyph-name="bar-chart-down" d="M1024 0v-64h-1024v1024h64v-192h64v-64h-64v-128h64v-64h-64v-128h64v-64h-64v-128h64v-64h-64v-128h960zM320 960h-128v-896h128v896zM512 768h-128v-704h128v704zM704 576h-128v-512h128v512zM896 384h-128v-320h128v320z" />
<glyph unicode="&#xe90e;" glyph-name="bar-chart-pie" d="M685.563 819.139c14.145 30.402 28.291 60.593 43.281 92.895-164.678 69.249-325.345 65.871-479.044-25.546-148.421-88.462-229.071-222.527-249.762-395.439 35.258-3.167 68.616-5.912 101.974-8.867 18.157 261.163 306.766 461.521 583.552 336.957zM1016.608 535.175c-33.147-5.7-66.082-11.612-100.496-17.523 17.735-119.708-6.756-227.382-80.017-321.756-72.627-93.951-169.745-145.677-288.82-158.767 2.956-33.78 5.7-66.716 8.656-99.651 249.128 8.867 515.991 259.051 460.676 597.697zM100.323 410.4c-31.669-2.745-64.604-5.489-97.54-8.445 7.601-208.803 189.802-443.575 464.266-465.955 2.956 33.78 5.912 66.927 8.656 99.018-214.504 35.891-339.068 160.244-375.382 375.382zM836.729 696.475c25.546-33.147 45.392-69.671 60.804-109.785 31.88 11.612 63.338 23.013 96.273 35.047-38.003 101.129-100.074 181.568-187.902 244.695-19.635-27.869-38.847-55.315-58.693-83.817 33.78-24.913 63.971-52.993 89.517-86.139zM638.060 584.578c-9.29 0-16.679-7.389-16.679-16.679v-329.99c0-9.29 7.389-16.679 16.679-16.679h114.219c9.29 0 16.679 7.389 16.679 16.679v329.99c0 9.29-7.389 16.679-16.679 16.679h-114.219zM735.6 254.589h-80.861v296.421h80.861v-296.421zM271.757 496.961c-9.29 0-16.679-7.389-16.679-16.679v-242.372c0-9.29 7.389-16.679 16.679-16.679h114.219c9.29 0 16.679 7.389 16.679 16.679v242.372c0 9.29-7.389 16.679-16.679 16.679h-114.219zM288.436 254.589v25.968l25.968-25.968h-25.968zM340.795 254.589l-52.359 52.359v26.391l78.961-78.961h-26.602v0.211zM369.297 279.079l-80.861 80.861v26.391l80.861-80.861v-26.391zM369.297 331.861l-80.861 80.861v26.391l80.861-80.861v-26.391zM369.297 384.642l-78.75 78.75h26.391l52.359-52.359v-26.391zM369.297 437.635l-25.968 25.968h25.968v-25.968zM454.803 718.643c-9.29 0-16.679-7.389-16.679-16.679v-464.054c0-9.29 7.389-16.679 16.679-16.679h114.219c9.29 0 16.679 7.389 16.679 16.679v464.054c0 9.29-7.389 16.679-16.679 16.679 0 0-114.219 0-114.219 0z" />
<glyph unicode="&#xe90f;" glyph-name="bar-chart-pyramide-2" d="M256 128h192v-128h-192v128zM192 192h256v128h-256v-128zM128 384h320v128h-320v-128zM64 576h384v128h-384v-128zM0 768h448v128h-448v-128zM576 0h192v128h-192v-128zM576 192h256v128h-256v-128zM576 384h320v128h-320v-128zM576 576h384v128h-384v-128zM576 896v-128h448v128h-448zM480-64h64v1024h-64v-1024z" />
<glyph unicode="&#xe910;" glyph-name="bar-chart-pyramide" d="M480 960h64v-1024h-64v1024zM256 0h192v128h-192v-128zM128 192h320v128h-320v-128zM0 384h448v128h-448v-128zM192 576h256v128h-256v-128zM320 768h128v128h-128v-128zM576 0h192v128h-192v-128zM576 192h320v128h-320v-128zM576 512v-128h448v128h-448zM832 704h-256v-128h256v128zM704 896h-128v-128h128v128z" />
<glyph unicode="&#xe911;" glyph-name="bar-chart-pyramide3" d="M768 768h-192v128h192v-128zM832 704h-256v-128h256v128zM896 512h-320v-128h320v128zM960 320h-384v-128h384v128zM576 128v-128h448v128h-448zM256 768h192v128h-192v-128zM192 576h256v128h-256v-128zM128 384h320v128h-320v-128zM64 192h384v128h-384v-128zM0 0h448v128h-448v-128zM480-64h64v1024h-64v-1024z" />
<glyph unicode="&#xe912;" glyph-name="bar-chart-up-2" d="M1024 0v-64h-1024v1024h64v-960h960zM896 960l-251.938-41.188 60.562-74.062-532.876-436 40.5-49.5 532.938 436 60.562-74 90.252 238.75zM826.438 594.874l-58.438 71.438v-602.312h128v714.938l-69.562-184.064zM384 417.062v-353.062h128v457.75l-128-104.688zM203.218 269.188l-11.218 13.75v-218.938h128v300.75l-116.782-95.562zM576 574.124v-510.124h128v614.874l-128-104.75z" />
<glyph unicode="&#xe913;" glyph-name="bar-chart-up-3" d="M75.376 449c-3.876-0.688-7.688-1-11.438-1-30.376 0-57.312 21.75-62.938 52.624-6.25 34.812 16.876 68.126 51.688 74.376 156.688 28.25 325 108.126 500.688 236.438l-73.876 89.624 352.5 58.938-125.188-334.75-71.938 87.25c-195.624-144.126-379.124-231-559.498-263.5zM192 256h-64c-35.312 0-64-28.626-64-64v-192c0-35.376 28.688-64 64-64h64c35.376 0 64 28.626 64 64v192c0 35.374-28.624 64-64 64zM704 512h-64c-35.376 0-64-28.626-64-64v-448c0-35.376 28.626-64 64-64h64c35.376 0 64 28.626 64 64v448c0 35.374-28.624 64-64 64zM960 640h-64c-35.376 0-64-28.626-64-64v-576c0-35.376 28.626-64 64-64h64c35.376 0 64 28.626 64 64v576c0 35.374-28.624 64-64 64zM448 384h-64c-35.312 0-64-28.626-64-64v-320c0-35.376 28.688-64 64-64h64c35.376 0 64 28.626 64 64v320c0 35.374-28.624 64-64 64z" />
<glyph unicode="&#xe914;" glyph-name="bar-chart-up-4" d="M64 0h960v-64h-1024v1024h64v-960zM384 128h-256v256h256v-256zM352 352h-192v-128h192v128zM704 128h-256v512h256v-512zM672 608h-192v-192h192v192zM1024 960v-832h-256v832h256zM992 928h-192v-256h192v256z" />
<glyph unicode="&#xe915;" glyph-name="bar-chart-up" d="M1024 0v-64h-1024v1024h64v-192h64v-64h-64v-128h64v-64h-64v-128h64v-64h-64v-128h64v-64h-64v-128h960zM320 384h-128v-320h128v320zM512 576h-128v-512h128v512zM704 768h-128v-704h128v704zM896 960h-128v-896h128v896z" />
<glyph unicode="&#xe916;" glyph-name="calculator" d="M747.52 908.8h-471.142c-39.373 0-71.578-32.205-71.578-71.68v-778.24c0-39.424 32.205-71.68 71.578-71.68h471.142c39.373 0 71.68 32.307 71.68 71.68v778.24c0 39.475-32.307 71.68-71.68 71.68zM358.4 345.6c35.277 0 64-22.886 64-51.2s-28.723-51.2-64-51.2c-35.328 0-64 22.886-64 51.2s28.672 51.2 64 51.2zM294.4 448c0 28.314 28.672 51.2 64 51.2 35.277 0 64-22.886 64-51.2s-28.723-51.2-64-51.2c-35.328 0-64 22.886-64 51.2zM358.4 192c35.277 0 64-22.886 64-51.2s-28.723-51.2-64-51.2c-35.328 0-64 22.886-64 51.2s28.672 51.2 64 51.2zM512 345.6c35.277 0 64-22.886 64-51.2s-28.723-51.2-64-51.2c-35.328 0-64 22.886-64 51.2s28.672 51.2 64 51.2zM448 448c0 28.314 28.672 51.2 64 51.2 35.277 0 64-22.886 64-51.2s-28.723-51.2-64-51.2c-35.328 0-64 22.886-64 51.2zM512 192c35.277 0 64-22.886 64-51.2s-28.723-51.2-64-51.2c-35.328 0-64 22.886-64 51.2s28.672 51.2 64 51.2zM665.6 345.6c35.277 0 64-22.886 64-51.2s-28.723-51.2-64-51.2c-35.328 0-64 22.886-64 51.2s28.672 51.2 64 51.2zM601.6 448c0 28.314 28.672 51.2 64 51.2 35.277 0 64-22.886 64-51.2s-28.723-51.2-64-51.2c-35.328 0-64 22.886-64 51.2zM665.6 192c35.277 0 64-22.886 64-51.2s-28.723-51.2-64-51.2c-35.328 0-64 22.886-64 51.2s28.672 51.2 64 51.2zM256 601.6v153.6h512v-153.6h-512z" />
<glyph unicode="&#xe917;" glyph-name="calendar-add" d="M192 800c0-17.688-14.312-32-32-32v0c-17.688 0-32 14.312-32 32v128c0 17.688 14.312 32 32 32v0c17.688 0 32-14.312 32-32v-128zM704 928c0 17.688-14.312 32-32 32v0c-17.688 0-32-14.312-32-32v-128c0-17.688 14.312-32 32-32v0c17.688 0 32 14.312 32 32v128zM768 384c-105.876 0-192-86.126-192-192s86.126-192 192-192 192 86.126 192 192-86.124 192-192 192zM768 448c141.376 0 256-114.626 256-256s-114.626-256-256-256-256 114.626-256 256 114.626 256 256 256v0zM256 576h-128v-128h128v128zM256 384h-128v-128h128v128zM448 576h-128v-128h128v128zM448 384h-128v-128h128v128zM448 192h-378.656c-2.906 0-5.344 3-5.344 6.376v441.624h704v-128h64v249.624c0 38.876-31 70.376-69.312 70.376h-26.688v-32c0-35.25-28.688-64-64-64s-64 28.75-64 64v32h-384v-32c0-35.25-28.688-64-64-64s-64 28.75-64 64v32h-26.656c-38.312 0-69.344-31.5-69.344-70.376v-563.25c0-38.75 31.032-70.374 69.344-70.374h378.656v64zM640 576h-128v-128h128v128zM864 224h-64v64c0 17.688-14.312 32-32 32s-32-14.312-32-32v-64h-64c-17.688 0-32-14.312-32-32s14.312-32 32-32h64v-64c0-17.688 14.312-32 32-32s32 14.312 32 32v64h64c17.688 0 32 14.312 32 32s-14.312 32-32 32z" />
<glyph unicode="&#xe918;" glyph-name="calendar-chart" d="M128 800v128c0 17.688 14.312 32 32 32s32-14.312 32-32v-128c0-17.688-14.312-32-32-32s-32 14.312-32 32zM672 768c17.688 0 32 14.312 32 32v128c0 17.688-14.312 32-32 32s-32-14.312-32-32v-128c0-17.688 14.312-32 32-32zM1024 192c0-141.376-114.626-256-256-256s-256 114.626-256 256 114.626 256 256 256 256-114.626 256-256zM960 192c0 105.876-86.126 192-192 192s-192-86.126-192-192 86.126-192 192-192 192 86.124 192 192zM256 576h-128v-128h128v128zM128 256h128v128h-128v-128zM320 448h128v128h-128v-128zM320 256h128v128h-128v-128zM64 198.374v441.626h704v-128h64v249.624c0 38.876-31 70.376-69.312 70.376h-26.688v-32c0-35.25-28.688-64-64-64s-64 28.75-64 64v32h-384v-32c0-35.25-28.688-64-64-64s-64 28.75-64 64v32h-26.624c-38.376 0-69.376-31.5-69.376-70.376v-563.25c0-38.75 31-70.374 69.376-70.374h378.624v64h-378.624c-2.938 0-5.376 3-5.376 6.374zM640 448v128h-128v-128h128zM768 352h-32v-192h192v32c0 88.25-71.75 160-160 160z" />
<glyph unicode="&#xe919;" glyph-name="calendar-check" d="M128 800v128c0 17.688 14.312 32 32 32s32-14.312 32-32v-128c0-17.688-14.312-32-32-32s-32 14.312-32 32zM672 768c17.688 0 32 14.312 32 32v128c0 17.688-14.312 32-32 32s-32-14.312-32-32v-128c0-17.688 14.312-32 32-32zM1024 192c0-141.376-114.626-256-256-256s-256 114.626-256 256 114.626 256 256 256 256-114.626 256-256zM960 192c0 105.876-86.126 192-192 192s-192-86.126-192-192 86.126-192 192-192 192 86.124 192 192zM256 576h-128v-128h128v128zM128 256h128v128h-128v-128zM320 448h128v128h-128v-128zM320 256h128v128h-128v-128zM64 198.374v441.626h704v-128h64v249.624c0 38.876-31 70.376-69.312 70.376h-26.688v-32c0-35.25-28.688-64-64-64s-64 28.75-64 64v32h-384v-32c0-35.25-28.688-64-64-64s-64 28.75-64 64v32h-26.656c-38.312 0-69.344-31.5-69.344-70.376v-563.25c0-38.75 31.032-70.374 69.344-70.374h378.656v64h-378.656c-2.906 0-5.344 3-5.344 6.374zM640 448v128h-128v-128h128zM903.75 254.374c-12.5 12.5-32.75 12.5-45.25 0l-113.126-113.126-67.876 67.876c-12.5 12.5-32.75 12.5-45.25 0s-12.5-32.75 0-45.25l90.5-90.5c6.25-6.25 14.438-9.376 22.626-9.376s16.376 3.126 22.626 9.376l135.75 135.75c12.5 12.5 12.5 32.75 0 45.25z" />
<glyph unicode="&#xe91a;" glyph-name="calendar-delete" d="M512 448v128h128v-128h-128zM256 576h-128v-128h128v128zM64 198.374v441.626h704v-128h64v249.624c0 38.876-31 70.376-69.312 70.376h-26.688v-32c0-35.25-28.688-64-64-64s-64 28.75-64 64v32h-384v-32c0-35.25-28.688-64-64-64s-64 28.75-64 64v32h-26.624c-38.376 0-69.376-31.5-69.376-70.376v-563.25c0-38.75 31-70.374 69.376-70.374h378.624v64h-378.624c-2.938 0-5.376 3-5.376 6.374zM160 768c17.688 0 32 14.312 32 32v128c0 17.688-14.312 32-32 32s-32-14.312-32-32v-128c0-17.688 14.312-32 32-32zM672 768c17.688 0 32 14.312 32 32v128c0 17.688-14.312 32-32 32s-32-14.312-32-32v-128c0-17.688 14.312-32 32-32zM858.5 282.5c-12.5 12.5-32.75 12.5-45.25 0l-45.25-45.25-45.25 45.25c-12.5 12.5-32.75 12.5-45.25 0s-12.5-32.75 0-45.25l45.25-45.25-45.25-45.25c-12.5-12.5-12.5-32.75 0-45.25s32.75-12.5 45.25 0l45.25 45.25 45.25-45.25c12.5-12.5 32.75-12.5 45.25 0s12.5 32.75 0 45.25l-45.25 45.25 45.25 45.25c12.5 12.5 12.5 32.75 0 45.25zM1024 192c0-141.376-114.626-256-256-256s-256 114.626-256 256 114.626 256 256 256 256-114.626 256-256zM960 192c0 105.876-86.126 192-192 192s-192-86.126-192-192 86.126-192 192-192 192 86.124 192 192zM320 256h128v128h-128v-128zM320 448h128v128h-128v-128zM128 256h128v128h-128v-128z" />
<glyph unicode="&#xe91b;" glyph-name="calendar-remove" d="M128 800v128c0 17.688 14.312 32 32 32s32-14.312 32-32v-128c0-17.688-14.312-32-32-32s-32 14.312-32 32zM672 768c17.688 0 32 14.312 32 32v128c0 17.688-14.312 32-32 32s-32-14.312-32-32v-128c0-17.688 14.312-32 32-32zM1024 192c0-141.376-114.626-256-256-256s-256 114.626-256 256 114.626 256 256 256 256-114.626 256-256zM960 192c0 105.876-86.126 192-192 192s-192-86.126-192-192 86.126-192 192-192 192 86.124 192 192zM256 576h-128v-128h128v128zM128 256h128v128h-128v-128zM320 448h128v128h-128v-128zM320 256h128v128h-128v-128zM64 198.374v441.626h704v-128h64v249.624c0 38.876-31 70.376-69.312 70.376h-26.688v-32c0-35.25-28.688-64-64-64s-64 28.75-64 64v32h-384v-32c0-35.25-28.688-64-64-64s-64 28.75-64 64v32h-26.624c-38.376 0-69.376-31.5-69.376-70.376v-563.25c0-38.75 31-70.374 69.376-70.374h378.624v64h-378.624c-2.938 0-5.376 3-5.376 6.374zM640 448v128h-128v-128h128zM864 224h-192c-17.688 0-32-14.376-32-32 0-17.75 14.312-32 32-32h192c17.688 0 32 14.25 32 32 0 17.624-14.312 32-32 32z" />
<glyph unicode="&#xe91c;" glyph-name="calendar-time" d="M128 800v128c0 17.688 14.312 32 32 32s32-14.312 32-32v-128c0-17.688-14.312-32-32-32s-32 14.312-32 32zM672 768c17.688 0 32 14.312 32 32v128c0 17.688-14.312 32-32 32s-32-14.312-32-32v-128c0-17.688 14.312-32 32-32zM1024 192c0-141.376-114.626-256-256-256s-256 114.626-256 256 114.626 256 256 256 256-114.626 256-256zM960 192c0 105.876-86.126 192-192 192s-192-86.126-192-192 86.126-192 192-192 192 86.124 192 192zM256 576h-128v-128h128v128zM128 256h128v128h-128v-128zM320 448h128v128h-128v-128zM320 256h128v128h-128v-128zM64 198.374v441.626h704v-128h64v249.624c0 38.876-31 70.376-69.312 70.376h-26.688v-32c0-35.25-28.688-64-64-64s-64 28.75-64 64v32h-384v-32c0-35.25-28.688-64-64-64s-64 28.75-64 64v32h-26.656c-38.312 0-69.344-31.5-69.344-70.376v-563.25c0-38.75 31.032-70.374 69.344-70.374h378.656v64h-378.656c-2.906 0-5.344 3-5.344 6.374zM640 448v128h-128v-128h128zM864 192h-96v96c0 17.688-14.312 32-32 32s-32-14.312-32-32v-128c0-17.688 14.312-32 32-32h128c17.688 0 32 14.312 32 32s-14.312 32-32 32z" />
<glyph unicode="&#xe91d;" glyph-name="circular-gauge" d="M900.301 480.154h102.4c-3.328 53.709-15.002 105.114-34.202 152.781l-89.907-51.917c11.469-31.898 18.995-65.69 21.709-100.864zM721.971 893.696c-48.896 23.091-101.888 38.758-158.003 44.544v-103.475c37.53-4.966 73.37-15.104 106.701-29.952l51.302 88.883zM831.59 672.154l89.139 51.456c-30.259 44.954-68.096 84.224-111.206 116.992l-51.507-89.19c28.109-22.835 52.787-49.562 73.574-79.258zM512.717 60.365c-214.886 0-389.12 174.182-389.12 389.12 0 197.53 147.302 360.243 337.971 385.331v103.475c-247.45-25.6-440.371-234.65-440.371-488.806 0-271.514 220.058-491.571 491.571-491.571 246.989 0 450.918 182.426 485.683 419.84h-103.475c-33.69-180.582-191.898-317.389-382.259-317.389z" />
<glyph unicode="&#xe91e;" glyph-name="compass" d="M279.245 215.142c0 0 233.882 32.102 333.722 131.891s131.891 333.722 131.891 333.722-233.933-32.102-333.722-131.891-131.891-333.722-131.891-333.722zM461.67 498.432c41.882 41.882 122.112 71.68 190.925 90.214-18.483-68.71-48.384-149.504-90.112-191.078-27.802-27.904-73.011-27.904-100.813 0-27.904 27.802-27.904 72.96 0 100.864zM512.051 939.52c-271.514 0-491.571-220.058-491.571-491.52 0-271.514 220.058-491.571 491.571-491.571 271.411 0 491.52 220.058 491.52 491.571 0 271.462-220.109 491.52-491.52 491.52zM512 58.88c-214.886 0-389.12 174.182-389.12 389.12 0 214.886 174.182 389.12 389.12 389.12 214.886 0 389.171-174.182 389.171-389.12 0-214.886-174.285-389.12-389.171-389.12z" />
<glyph unicode="&#xe91f;" glyph-name="lcd" d="M345.946 849.297l55.351-55.351h221.405l55.351 55.351-55.351 55.351h-193.73zM345.946 461.838l55.351-55.351h221.405l55.351 55.351-55.351 55.351h-193.73zM345.946 74.378l55.351-55.351h221.405l55.351 55.351-55.351 55.351h-193.73zM318.27 821.622l-55.351-55.351v-221.405l55.351-55.351 55.351 55.351v221.405zM318.27 434.162l-55.351-55.351v-221.405l55.351-55.351 55.351 55.351v221.405zM705.73 821.622l-55.351-55.351v-221.405l55.351-55.351 55.351 55.351v221.405zM705.73 434.162l-55.351-55.351v-221.405l55.351-55.351 55.351 55.351v221.405z" />
<glyph unicode="&#xe920;" glyph-name="line-chart-1" d="M64 0h960v-64h-1024v1024h64v-192h64v-64h-64v-128h64v-64h-64v-128h64v-64h-64v-128h64v-64h-64v-128zM192 288c0 53 42.968 96 96 96 9.968 0 19.376-1.938 28.438-4.75l83.688 111.626c-10.158 15.186-16.126 33.498-16.126 53.124 0 53 43 96 96 96s96-43 96-96c0-10-1.938-19.376-4.782-28.438l111.594-83.688c15.25 10.126 33.5 16.126 53.188 16.126 4 0 7.75-0.688 11.626-1.188l111.374 222.688c-16.626 17.25-27 40.626-27 66.5 0 53 43 96 96 96s96-43 96-96-43-96-96-96c-4 0-7.75 0.688-11.626 1.188l-111.312-222.688c16.626-17.25 26.938-40.626 26.938-66.5 0-53-43-96-96-96s-96 43-96 96c0 9.938 1.938 19.376 4.75 28.438l-111.594 83.688c-15.218-10.126-33.5-16.126-53.156-16.126-9.968 0-19.376 1.938-28.406 4.75l-83.718-111.562c10.156-15.25 16.124-33.5 16.124-53.188 0-53-42.968-96-96-96s-96 43-96 96zM896 736c0-17.688 14.312-32 32-32s32 14.312 32 32-14.312 32-32 32-32-14.312-32-32zM704 352c0-17.688 14.312-32 32-32s32 14.312 32 32-14.312 32-32 32-32-14.312-32-32zM448 544c0-17.688 14.312-32 32-32s32 14.312 32 32-14.312 32-32 32-32-14.312-32-32zM256 288c0-17.688 14.312-32 32-32s32 14.312 32 32-14.312 32-32 32-32-14.312-32-32z" />
<glyph unicode="&#xe921;" glyph-name="line-chart-2" d="M306.844 928h-52.718v32h52.718v-32zM201.438 960h-52.72v-32h52.718v32zM833.876 960h-52.688v-32h52.688v32zM728.5 960h-52.75v-32h52.75v32zM939.312 960h-52.75v-32h52.75v32zM623.062 960h-52.718v-32h52.718v32zM412.25 960h-52.718v-32h52.718v32zM992 0h-464v32h-32v-32h-432v432h32v32h-32v464h32v32h-96v-1024h1024v96h-32v-32zM992 84.75h32v52.688h-32v-52.688zM992 190.124h32v52.75h-32v-52.75zM992 822.562h32v52.75h-32v-52.75zM992 717.188h32v52.686h-32v-52.686zM992 506.374h32v52.688h-32v-52.688zM992 295.5h32v52.75h-32v-52.75zM992 611.75h32v52.75h-32v-52.75zM992 960v-32h32v32h-32zM496 84.75h32v52.688h-32v-52.688zM528 242.874h-32v-52.75h32v52.75zM496 717.188h32v52.686h-32v-52.686zM528 453.624h-10.376v10.376h-52.688v-32h31.064v-31.062h32v52.686zM528 875.312h-32v-52.75h32v52.75zM528 348.25h-32v-52.75h32v52.75zM517.656 928h10.344v32h-63.062v-32h52.718zM201.438 464h-52.72v-32h52.718v32zM939.312 432v32h-52.75v-32h52.75zM992 453.624v-52.686h32v63.062h-32v-10.376zM469.844 540.562l26.156-20.938v-13.25h16.626l57.75-46.25v-28.124h35.188l197.562-158.062 154.438 540.438-123.126 35.25-101.562-355.562-204.876 163.936v6.5h-8.188l-93.656 74.938-137.718-275.438h-34.312v-32h18.312l-137.688-275.376 114.5-57.25 220.594 441.188z" />
<glyph unicode="&#xe922;" glyph-name="line-chart-3" d="M1024 0v-64h-1024v1024h64v-960h960zM465.532 404l133.844-133.876 118.876 297.126 133.062-199.626 169.376 508.126-121.376 40.5-86.626-259.876-122.938 184.376-137.126-342.876-122.156 122.126-128-255.938-65.218 65.188-90.5-90.5 190.782-190.812 128 256.062z" />
<glyph unicode="&#xe923;" glyph-name="line-chart-4" d="M216.594 427.5l-49.188 41 109.876 131.75 534.844-356.562 41.874 76.124-55.812 30.688 163.812 99.124 3.938-191.438-55.812 30.688-75.5-137.062-545.032 363.312-73-87.624zM518.188 533.438l196.562-131.062 190.812 333.812 55.312-31.626-0.874 191.438-165.376-96.438 55.314-31.562-156.688-274.376-187.438 124.938-70.844-85 53.562-35.688 29.658 35.564zM406.156 399l-53.562 35.688-185.188-222.188 49.188-41 189.562 227.5zM64 0v128h64v64h-64v128h64v64h-64v128h64v64h-64v128h64v64h-64v128h64v64h-128v-1024h1024v64h-960z" />
<glyph unicode="&#xe924;" glyph-name="line-chart-5" d="M64 0h960v-64h-1024v1024h128v-64h-64v-128h64v-64h-64v-128h64v-64h-64v-128h64v-64h-64v-128h64v-64h-64v-128zM256 128c35.344 0 64 28.626 64 64 0 21.062-10.844 38.876-26.562 50.562l82.812 207c2.656-0.312 5-1.562 7.75-1.562 7.312 0 14.094 1.876 20.656 4.126l60-89.938c-10.062-11.314-16.656-25.876-16.656-42.188 0-35.376 28.656-64 64-64s64 28.626 64 64c0 22.376-12.188 41.126-29.594 52.562l89.406 268.312c1.438-0.124 2.688-0.874 4.188-0.874 11.812 0 22.25 4.062 31.75 9.626l105.876-105.876c-5.564-9.5-9.626-19.938-9.626-31.75 0-35.376 28.626-64 64-64s64 28.626 64 64c0 22.376-12.188 41.126-29.626 52.626l89.438 268.25c1.438-0.126 2.688-0.876 4.188-0.876 35.376 0 64 28.626 64 64s-28.624 64-64 64-64-28.626-64-64c0-22.376 12.188-41.126 29.626-52.626l-89.438-268.25c-1.438 0.126-2.688 0.876-4.188 0.876-11.812 0-22.25-4.062-31.75-9.626l-105.876 105.876c5.562 9.5 9.626 19.938 9.626 31.75 0 35.376-28.626 64-64 64s-64-28.626-64-64c0-22.376 12.188-41.126 29.626-52.626l-89.468-268.188c-1.44 0.064-2.69 0.814-4.158 0.814-7.312 0-14.094-1.876-20.656-4.188l-60 90.062c10.062 11.25 16.656 25.75 16.656 42.126 0 35.376-28.656 64-64 64s-64-28.626-64-64c0-21.126 10.844-38.876 26.562-50.5l-82.812-207.062c-2.656 0.312-5 1.562-7.75 1.562-35.344 0-64-28.626-64-64s28.656-64 64-64z" />
<glyph unicode="&#xe925;" glyph-name="line-chart-6" d="M64 0h960v-64h-1024v1024h128v-64h-64v-128h64v-64h-64v-128h64v-64h-64v-128h64v-64h-64v-128h64v-64h-64v-128zM797.312 542.75c-3.686-56.5-8.312-126.75-29.312-126.75-37.438 0-47.688 20.312-65.626 74.126-16.624 49.748-39.312 117.874-126.374 117.874-91.094 0-110.468-116.25-127.562-218.75-12.282-73.626-27.532-165.25-64.438-165.25-65.344 0-95.906 171.876-96 288h-64c0-36 4.5-352 160-352 91.094 0 110.468 116.188 127.562 218.75 12.282 73.624 27.532 165.25 64.438 165.25 37.438 0 47.688-20.312 65.626-74.126 16.624-49.75 39.312-117.874 126.374-117.874 80.938 0 87.188 94.876 93.188 186.5 10 153.124 27.562 261.5 162.812 261.5v64c-205.688 0-218.312-193.376-226.688-321.25z" />
<glyph unicode="&#xe926;" glyph-name="line-chart-7" d="M960 704c-29.688 0-53.562-20.626-60.75-48h-99.25l135.688 180.876c7.5-3.064 15.688-4.876 24.312-4.876 35.376 0 64 28.626 64 64s-28.624 64-64 64-64-28.626-64-64c0-15 5.938-28.25 14.626-39.126l-150.626-200.874h-123.25c-7.25 27.376-31.062 48-60.75 48-35.344 0-64-28.626-64-64 0-15.562 6.25-29.312 15.468-40.376l-118.468-165.874-89.75 17.876c-2 33.624-29.188 60.374-63.25 60.374-35.344 0-64-28.626-64-64s28.656-64 64-64c25.282 0 46.656 15 57.062 36.25l75.532-15.126-109.844-153.688c-7.094 2.688-14.688 4.564-22.75 4.564-35.344 0-64-28.626-64-64s28.656-64 64-64 64 28.626 64 64c0 15.562-6.218 29.312-15.468 40.376l118.468 165.876 89.75-17.938c2-33.564 29.218-60.314 63.25-60.314 35.376 0 64 28.626 64 64 0 15-5.938 28.25-14.626 39.126l150.626 200.874h123.25c7.25-27.376 31.062-48 60.75-48 35.376 0 64 28.626 64 64s-28.624 64-64 64zM600.312 443.124c-7.5 3.064-15.686 4.876-24.312 4.876-25.282 0-46.688-15-57.094-36.25l-75.5 15.062 109.844 153.812c7.126-2.75 14.688-4.624 22.75-4.624 29.688 0 53.5 20.626 60.75 48h99.25l-135.688-180.876zM1024 0v-64h-1024v1024h64v-960h960z" />
<glyph unicode="&#xe927;" glyph-name="line-chart-8" d="M1024 0v-64h-1024v1024h128v-64h-64v-128h64v-64h-64v-128h64v-64h-64v-128h64v-64h-64v-128h64v-64h-64v-128h960zM288 128c53 0 96 43 96 96 0 20.75-6.718 39.812-17.906 55.5l122.406 122.376c15.688-11.126 34.782-17.876 55.5-17.876 26.126 0 49.75 10.5 67.062 27.5l105.562-76.812c-7.812-13.876-12.624-29.626-12.624-46.688 0-53 43-96 96-96s96 43 96 96c0 36.438-20.562 67.812-50.5 84.062l96.5 386.062 61.876-15.5-43.876 153.376-110.938-114.688 61.938-15.438-95.874-383.374c-4.938 0.75-9.938 1.5-15.126 1.5-24.376 0-46.376-9.376-63.312-24.376l-107.062 77.876c6.436 12.874 10.374 27.124 10.374 42.5 0 53-43 96-96 96-53.032 0-96-43-96-96 0-20.75 6.718-39.75 17.876-55.5l-122.406-122.376c-15.688 11.126-34.752 17.876-55.47 17.876-53.032 0-96-43-96-96s42.968-96 96-96z" />
<glyph unicode="&#xe928;" glyph-name="meter" d="M512 960c-282.282 0-512-229.718-512-512 0-282.325 229.718-512 512-512 282.325 0 512 229.675 512 512 0 282.282-229.675 512-512 512zM799.444 590.165l78.849 32.639c10.88 4.437 23.382-0.682 27.861-11.562s-0.682-23.339-11.562-27.82l-78.806-32.682-8.149-1.664c-8.363 0-16.299 4.992-19.711 13.226-4.524 10.882 0.639 23.341 11.519 27.863zM614.741 751.787l32.682 78.849c4.524 10.88 17.067 15.999 27.861 11.562 10.923-4.48 16.085-16.981 11.562-27.861l-32.682-78.849c-3.371-8.234-11.35-13.185-19.711-13.185l-8.149 1.621c-10.88 4.482-16.042 16.983-11.562 27.863zM490.666 845.398c0 11.775 9.557 21.334 21.334 21.334 11.734 0 21.334-9.557 21.334-21.334v-85.332c0-11.734-9.6-21.334-21.334-21.334-11.775 0-21.334 9.6-21.334 21.334 0-0.002 0 85.332 0 85.332zM348.758 842.154c10.88 4.48 23.382-0.682 27.861-11.562l32.639-78.806c4.48-10.837-0.682-23.339-11.562-27.861l-8.149-1.621c-8.363 0-16.299 4.949-19.711 13.226l-32.641 78.806c-4.48 10.88 0.684 23.339 11.564 27.818zM82.943 440.064c0 11.775 9.557 21.334 21.334 21.334h85.332c11.734 0 21.334-9.557 21.334-21.334 0-11.734-9.6-21.334-21.334-21.334h-85.332c-11.775 0.002-21.334 9.602-21.334 21.334zM224.554 305.835l-78.89-32.682-8.149-1.621c-8.363 0-16.342 4.949-19.711 13.185-4.48 10.923 0.682 23.382 11.562 27.861l78.89 32.682c10.837 4.48 23.382-0.682 27.861-11.562 4.439-10.923-0.68-23.382-11.562-27.863zM236.074 562.218c-3.414-8.149-11.391-13.141-19.711-13.141l-8.149 1.664-78.849 32.639c-10.88 4.565-16.042 17.024-11.521 27.947 4.524 10.88 17.067 15.999 27.861 11.521l78.849-32.682c10.882-4.522 16.044-16.981 11.521-27.947zM270.634 659.157l-60.288 60.372c-8.32 8.32-8.32 21.846 0 30.166s21.802 8.32 30.166-0.043l60.288-60.331c8.32-8.363 8.32-21.846 0-30.166-4.181-4.139-9.643-6.229-15.103-6.229s-10.923 2.093-15.062 6.231zM725.333 127.189c0-11.775-9.6-21.334-21.334-21.334h-384c-11.775 0-21.334 9.557-21.334 21.334v128c0 11.775 9.557 21.334 21.334 21.334h384c11.734 0 21.334-9.557 21.334-21.334v-128zM585.257 491.050c7.509-12.671 12.075-27.306 12.075-43.050 0-47.060-38.229-85.332-85.332-85.332-47.060 0-85.332 38.272-85.332 85.332 0 47.019 38.272 85.332 85.332 85.332 15.787 0 30.379-4.608 43.093-12.075l198.229 198.229c8.32 8.32 21.846 8.32 30.166 0s8.32-21.846 0-30.166c-0.002 0.002-198.229-198.271-198.231-198.271zM906.111 284.715c-3.371-8.193-11.35-13.226-19.67-13.226l-8.149 1.664-78.849 32.682c-10.88 4.48-16.042 16.981-11.562 27.861 4.48 10.837 17.067 16.042 27.861 11.562l78.849-32.682c10.923-4.478 16.085-17.022 11.521-27.861zM917.29 426.625l-85.291 0.043c-11.775 0-21.334 9.557-21.334 21.334 0 11.775 9.6 21.334 21.334 21.334l85.291-0.043c11.775-0.043 21.334-9.6 21.334-21.375-0.002-11.736-9.559-21.293-21.334-21.293z" />
<glyph unicode="&#xe929;" glyph-name="note-1" d="M895 960h-768c-35.344 0-64-28.626-64-64v-896c0-35.376 28.656-64 64-64h768c35.376 0 64 28.626 64 64v896c0 35.374-28.624 64-64 64zM191 896c35.344 0 64-28.626 64-64s-28.656-64-64-64-64 28.626-64 64 28.656 64 64 64zM895 0h-768v704h768v-704zM831 768c-35.376 0-64 28.626-64 64s28.626 64 64 64 64-28.626 64-64-28.624-64-64-64zM191 544c0 17.688 14.312 32 32 32h576c17.688 0 32-14.312 32-32s-14.312-32-32-32h-576c-17.688 0-32 14.312-32 32zM191 352c0 17.688 14.312 32 32 32h576c17.688 0 32-14.312 32-32s-14.312-32-32-32h-576c-17.688 0-32 14.312-32 32zM191 160c0 17.688 14.312 32 32 32h576c17.688 0 32-14.312 32-32s-14.312-32-32-32h-576c-17.688 0-32 14.312-32 32z" />
<glyph unicode="&#xe92a;" glyph-name="note-2" d="M960 896v-192h-896v192c0 35.374 28.626 64 64 64h768c35.376 0 64-28.626 64-64zM64 640h896v-640c0-35.376-28.626-64-64-64h-768c-35.376 0-64 28.626-64 64v640zM192 448h640v64h-640v-64zM192 256h640v64h-640v-64zM192 64h640v64h-640v-64z" />
<glyph unicode="&#xe92b;" glyph-name="note-3" d="M896 960h-768c-35.344 0-64-28.626-64-64v-896c0-35.376 28.656-64 64-64h768c35.376 0 64 28.626 64 64v896c0 35.374-28.624 64-64 64zM128 0v704h160v-128h-96v-32h96v-96h-96v-32h96v-96h-96v-32h96v-96h-96v-32h96v-160h-160zM896 0h-576v160h512v32h-512v96h512v32h-512v96h512v32h-512v96h512v32h-512v128h576v-704z" />
<glyph unicode="&#xe92c;" glyph-name="pie-chart-1" d="M512 448h512c0 282.75-229.25 512-512 512v-512zM448 384v571.562c-252.468-31.562-448-246.562-448-507.562 0-282.75 229.25-512 512-512 261 0 476 195.5 507.562 448h-571.562z" />
<glyph unicode="&#xe92d;" glyph-name="pie-chart-2" d="M485.126 432.812l255.25-442.126c-68.626-34.188-145.688-53.876-227.562-53.876-282.75 0-512 229.25-512 512 0 271.938 212.188 493.75 480 510.376v-510.376c-0.002-5.498 1.436-10.998 4.312-15.998zM1023.188 480.812h-478.376v478.376c257.126-15.938 462.438-221.25 478.376-478.376zM608.812 544.812h341c-37.188 169.938-171.062 303.812-341 341v-341zM795.938 22.374c129.562 86.188 217.062 229.814 227.25 394.438h-454.938l227.688-394.438z" />
<glyph unicode="&#xe92e;" glyph-name="pie-chart-3" d="M144 828.75c81.126 81.124 193.126 131.25 316.812 131.25v-448l-316.812 316.75zM512 832v-448l-316.75 316.75c-81.124-81.062-131.25-193.062-131.25-316.75 0-247.376 200.626-448 448-448s448 200.626 448 448-200.624 448-448 448z" />
<glyph unicode="&#xe92f;" glyph-name="pie-chart-4" d="M357.812 245.812l-129-223.438c-137.812 91.75-228.812 248.438-228.812 426.438 0 271.938 212.25 493.75 480 510.376v-257.626c-125.938-15.938-224-122.562-224-252.75 0-83.062 40.376-156.25 101.812-203zM715 603l223.438 129c-86.188 129.5-229.812 217-394.438 227.188v-257.626c69.75-8.812 130.376-45.25 171-98.562zM970.126 676.374l-222.188-128.312c12.874-30.5 20.062-64.062 20.062-99.25 0-141.188-114.812-256-256-256-35.188 0-68.75 7.126-99.25 20.062l-128.312-222.188c68.626-34.188 145.688-53.876 227.562-53.876 282.75 0 512 229.25 512 512 0 81.878-19.688 158.94-53.874 227.564z" />
<glyph unicode="&#xe930;" glyph-name="pie-chart-5" d="M480 960c-265.062 0-480-214.938-480-480h480v480zM416 544h-347.124c27.686 178.25 168.874 319.438 347.124 347.124v-347.124zM1024 416c0-265.062-214.938-480-480-480s-480 214.938-480 480h480v480c265.062 0 480-214.938 480-480z" />
<glyph unicode="&#xe931;" glyph-name="pie-chart-6" d="M74.126 352.812h437.062c16.75 0 33.312 4.438 48 12.876l378.75 218.688c14.126-43.812 21.25-89.126 21.25-135.562 0-247-201-448-448-448-212.562-0.002-392.812 149.936-437.062 351.998zM0.812 416.812c16.626-267.812 238.438-480 510.376-480 282.75 0 512 229.25 512 512 0 81.876-19.688 158.938-53.876 227.562l-442.124-255.25c-5-2.876-10.5-4.312-16-4.312h-510.376zM0.812 480.812h478.376v478.376c-257.126-15.938-462.438-221.25-478.376-478.376zM74.188 544.812c37.188 169.938 171.062 303.812 341 341v-341h-341zM607.188 886c90.876-19.626 172.438-66.562 234.938-135.312l-234.938-135.626v270.938zM543.188 959.188v-454.938l394.438 227.688c-86.188 129.562-229.814 217.062-394.438 227.25v0z" />
<glyph unicode="&#xe932;" glyph-name="pie-chart-7" d="M353.938 247.812l91.5 91.438c49-28.812 113.126-22.626 155.126 19.376 42 42.062 48.188 106.126 19.376 155.188l91.438 91.438c77.938-100.376 71.938-244.876-20.312-337.062-92.19-92.252-236.754-98.316-337.128-20.378zM445.376 559.124c39.876 23.376 89.438 23.376 129.312 0l91.438 91.376c-91.938 71.376-220.188 71.376-312.188 0l91.438-91.376zM308.688 605.25c-71.376-91.938-71.376-220.25 0-312.188l91.438 91.438c-23.438 39.876-23.438 89.5 0 129.376l-91.438 91.374zM480 765.562v193.626c-257.188-15.938-462.438-221.25-478.374-478.376h193.626c15.186 150.562 134.186 269.5 284.748 284.75zM512 128.812c-165.438 0-300.438 126.75-316.75 288h-193.624c16.562-267.812 238.438-480 510.376-480s493.812 212.25 510.376 480h-193.626c-16.314-161.25-151.252-288-316.752-288zM828.75 480.812h193.626c-15.938 257.126-221.25 462.438-478.376 478.376v-193.626c150.562-15.25 269.5-134.188 284.75-284.75z" />
<glyph unicode="&#xe933;" glyph-name="pie-chart-8" d="M171.876 664.5l56.626-32.626c-22.564-43.812-36.502-92.686-36.502-145.25 0-176.438 143.562-320 320-320s320 143.562 320 320h64c0-212.062-171.938-384-384-384-212.126 0-384 171.938-384 384 0 64.25 16 124.688 43.876 177.876zM512 38.624c-247 0-448 201-448 448 0 159.75 84.376 299.876 210.626 379.25l-32.126 55.5c-145.374-90.312-242.5-251-242.5-434.75 0-282.75 229.25-512 512-512s512 229.25 512 512h-64c0-247-201-448-448-448zM704 486.624c0-105.876-86.126-192-192-192s-192 86.126-192 192h-64c0-141.376 114.626-256 256-256s256 114.626 256 256h-64z" />
<glyph unicode="&#xe934;" glyph-name="pie-chart-9" d="M1024 448c0-282.75-229.25-512-512-512 212.062 0 384 171.938 384 384s-171.938 384-384 384-384-171.938-384-384 171.938-384 384-384c-282.75 0-512 229.25-512 512s229.25 512 512 512 512-229.25 512-512zM512 448c-141.376 0-256-114.626-256-256 0-132.562 101.126-240.312 230.188-253.376-58.312 11.938-102.188 63.5-102.188 125.376 0 70.688 57.312 128 128 128s128-57.312 128-128c0-61.876-43.876-113.438-102.188-125.376 129.064 13.064 230.188 120.814 230.188 253.376 0 141.374-114.624 256-256 256z" />
<glyph unicode="&#xe935;" glyph-name="pie-chart-10" d="M1024 448c0-282.75-229.25-512-512-512s-512 229.25-512 512h128c0-211.75 172.25-384 384-384s384 172.25 384 384-172.25 384-384 384v128c282.75 0 512-229.25 512-512zM512 768c-176.75 0-320-143.25-320-320s143.25-320 320-320c176.688 0 320 143.25 320 320h-320v320z" />
<glyph unicode="&#xe936;" glyph-name="pie-chart-11" d="M832 448c0-176.688-143.312-320-320-320-176.75 0-320 143.312-320 320 0 176.75 143.25 320 320 320 176.688 0 320-143.25 320-320zM544 830.374c186.25-15.5 334.938-164.126 350.376-350.376h128c-15.938 257.126-221.25 462.44-478.376 478.376v-128zM129.626 480c15.5 186.25 164.124 334.874 350.374 350.374v128c-257.124-15.936-462.438-221.25-478.374-478.374h128zM480 65.624c-186.25 15.438-334.874 164.126-350.374 350.376h-128c15.936-257.126 221.25-462.438 478.374-478.376v128zM894.376 416c-15.438-186.25-164.126-334.938-350.376-350.376v-128c257.126 15.938 462.438 221.25 478.376 478.376h-128z" />
<glyph unicode="&#xe937;" glyph-name="pie-chart-12" d="M691.876 800l-38.812 38.876c153.626-55.75 265.376-199.376 273.876-370h92.562l-155.502-155.502-155.5 155.5h89.376c-8.376 115-84.188 211-188 249.126l82 82zM782 350.124c-38.062-103.812-134.126-179.626-249.126-188v89.376l-155.498-155.5 155.5-155.5v92.562c170.626 8.5 314.25 120.25 370 273.938l-38.876-38.876-82 82zM414.126 178c-103.812 38.062-179.626 134.126-188 249.126h89.376l-155.502 155.498-155.5-155.5h92.562c8.562-170.626 120.312-314.25 273.938-370l-38.874 38.876 82 82zM242 545.874c38.126 103.812 134.126 179.626 249.126 188v-89.376l155.5 155.502-155.5 155.5v-92.562c-170.626-8.562-314.25-120.312-370-273.938l38.874 38.874 82-82zM320 448c0-106.062 85.938-192 192-192s192 85.938 192 192-85.938 192-192 192-192-85.938-192-192z" />
<glyph unicode="&#xe938;" glyph-name="pie-chart-13" d="M524.229 252.886c-99.073 4.022-182.693 74.517-203.015 171.896-2.964 13.76-4.446 27.944-4.657 42.127l-0.423 32.813-308.016 74.305-5.081-47.843c-5.927-55.676-3.175-111.775 8.256-166.604 54.829-261.443 297.008-442.866 563.108-421.908l47.843 3.811-64.99 310.133-33.024 1.27zM84.327 468.815l46.149-11.22-42.762-42.762c-2.117 17.994-3.387 35.988-3.387 53.982zM96.817 364.238l81.926 81.714 47.208-11.432-115.585-115.585c-5.292 14.819-9.738 29.849-13.548 45.303zM148.258 238.703c-7.409 12.278-14.184 24.98-20.323 38.105l114.739 114.739c4.022-15.030 9.103-29.426 15.242-43.397l-109.658-109.446zM172.18 202.926l106.271 106.271c7.409-11.855 15.665-23.286 24.768-33.871l-104.789-104.577c-9.103 10.161-17.994 20.958-26.25 32.178zM228.067 140.476l104.366 104.366c10.373-9.315 21.381-17.782 33.024-25.615l-105.636-105.636c-11.008 8.468-21.593 17.571-31.754 26.885zM295.175 89.246l108.388 108.388c13.548-6.563 27.732-11.855 42.339-16.301l-113.045-113.045c-13.125 6.351-25.615 13.337-37.682 20.958zM373.925 49.871l114.95 114.95 10.161-48.478-80.867-80.867c-14.819 4.022-29.637 8.891-44.244 14.395zM467.918 25.314l41.704 41.704 9.738-46.361c-17.359 0.635-34.506 2.329-51.442 4.657zM1013.455 570.005c-51.23 244.296-276.050 407.513-518.441 388.46l48.478-230.747c115.585-4.657 217.834-87.007 242.602-205.344s-35.565-234.77-139.719-285.576l48.478-230.959c229.689 80.021 369.831 319.871 318.601 564.167zM419.44 701.679l-48.478 230.747c-139.295-48.478-245.566-156.019-296.161-287.482l229.266-55.252c25.192 47.843 65.202 87.43 115.374 111.987z" />
</font>
</defs>
</svg>
